<?xml version="1.0" encoding="UTF-8" standalone="no"?>
<svg width="49px" height="54px" viewBox="0 0 49 54" version="1.1" xmlns="http://www.w3.org/2000/svg" xmlns:xlink="http://www.w3.org/1999/xlink">
    <!-- Generator: Sketch 3.8.3 (29802) - http://www.bohemiancoding.com/sketch -->
    <title>Group 6</title>
    <desc>Created with Sketch.</desc>
    <defs></defs>
    <g id="Page-1" stroke="none" stroke-width="1" fill="none" fill-rule="evenodd">
        <g id="Group-6" transform="translate(-2.000000, -3.000000)">
            <path d="M35.7449989,14.3758291 C35.642158,14.2726958 35.5001125,14.2092291 35.3427262,14.2092291 L18.8654534,14.2092291 C17.2989762,14.2092291 16.0245443,15.4802624 16.0245443,17.0425624 L16.0245443,41.4092291 C16.0245443,42.9715291 17.2989762,44.2425624 18.8654534,44.2425624 L25.1154534,44.2425624 L25.1154533,50.5502783 L26.2518173,50.5502783 L26.2518171,44.2425624 L34.7745443,44.2425624 C35.0881807,44.2425624 35.3427262,43.9892624 35.3427262,43.6758958 L35.3427262,40.8425624 C35.3427262,39.7885624 36.0682943,38.8994624 37.0472716,38.6478624 L37.0472716,43.6758958 L37.0472716,48.2092291 L38.1836352,48.2092291 L38.1836352,44.2425624 C39.7501125,44.2425624 41.0245443,42.9715291 41.0245443,41.4092291 L41.0245443,19.8758958 C41.0245443,19.7189291 40.960908,19.5772624 40.8574989,19.4746958 L35.7449989,14.3758291 Z M35.910908,16.1438291 L39.0847716,19.3092291 L35.910908,19.3092291 L35.910908,16.1438291 L35.910908,16.1438291 Z M39.8881807,41.4092291 C39.8881807,42.3464958 39.123408,43.1092291 38.1836352,43.1092291 L38.1836352,38.0092291 C38.1836352,37.6958624 37.9290898,37.4425624 37.6154534,37.4425624 C35.7353398,37.4425624 34.2063625,38.9674624 34.2063625,40.8425624 L34.2063625,43.1092291 L18.8654534,43.1092291 C17.9256807,43.1092291 17.160908,42.3464958 17.160908,41.4092291 L17.160908,17.0425624 C17.160908,16.1052958 17.9256807,15.3425624 18.8654534,15.3425624 L34.7745443,15.3425624 L34.7745443,19.8758958 C34.7745443,20.1892624 35.0290898,20.4425624 35.3427262,20.4425624 L39.8881807,20.4425624 L39.8881807,41.4092291 L39.8881807,41.4092291 Z" id="Shape-Copy-11" fill="#BA1D1D" transform="translate(28.524544, 32.379754) rotate(-14.000000) translate(-28.524544, -32.379754) "></path>
            <path d="M19.8026023,26.7565999 L23.2116932,26.7565999 L25.4844204,26.7565999 C25.7980568,26.7565999 26.0526023,26.5032999 26.0526023,26.1899332 L26.0526023,18.2565999 C26.0526023,17.9432332 25.7980568,17.6899332 25.4844204,17.6899332 L17.529875,17.6899332 C17.2162386,17.6899332 16.9616932,17.9432332 16.9616932,18.2565999 L16.9616932,26.1899332 C16.9616932,26.5032999 17.2162386,26.7565999 17.529875,26.7565999 L19.8026023,26.7565999 L19.8026023,26.7565999 Z M20.9389659,21.6565999 C20.9389659,21.3437999 21.1940795,21.0899332 21.5071477,21.0899332 C21.8202159,21.0899332 22.0753295,21.3437999 22.0753295,21.6565999 C22.0753295,21.9693999 21.8202159,22.2232666 21.5071477,22.2232666 C21.1940795,22.2232666 20.9389659,21.9693999 20.9389659,21.6565999 L20.9389659,21.6565999 Z M20.3707841,25.6232666 L20.3707841,24.4899332 C20.3707841,23.8648999 20.8804432,23.3565999 21.5071477,23.3565999 C22.1338523,23.3565999 22.6435113,23.8648999 22.6435113,24.4899332 L22.6435113,25.6232666 L20.3707841,25.6232666 L20.3707841,25.6232666 Z M18.0980568,18.8232666 L24.9162386,18.8232666 L24.9162386,25.6232666 L23.779875,25.6232666 L23.779875,24.4899332 C23.779875,23.7470332 23.4151023,23.0930999 22.8599886,22.6794332 C23.0776023,22.3938332 23.2116932,22.0419332 23.2116932,21.6565999 C23.2116932,20.7193332 22.4469204,19.9565999 21.5071477,19.9565999 C20.567375,19.9565999 19.8026023,20.7193332 19.8026023,21.6565999 C19.8026023,22.0419332 19.9366932,22.3938332 20.1543068,22.6794332 C19.5991932,23.0930999 19.2344204,23.7470332 19.2344204,24.4899332 L19.2344204,25.6232666 L18.0980568,25.6232666 L18.0980568,18.8232666 L18.0980568,18.8232666 Z" id="Shape-Copy-12" fill="#FF5252" transform="translate(21.507148, 22.223267) rotate(-14.000000) translate(-21.507148, -22.223267) "></path>
            <rect id="Rectangle-path-Copy-7" fill="#FF5252" transform="translate(27.515350, 18.618421) rotate(-14.000000) translate(-27.515350, -18.618421) " x="26.0948955" y="18.0517543" width="2.84090909" height="1.13333333"></rect>
            <path d="M26.7836755,3.73817861 C13.5497932,3.73817861 2.78367553,14.5042963 2.78367553,27.7381786 C2.78367553,40.972061 13.5497932,51.7381786 26.7836755,51.7381786 C40.0175579,51.7381786 50.7836755,40.972061 50.7836755,27.7381786 C50.7836755,14.5042963 40.0175579,3.73817861 26.7836755,3.73817861 L26.7836755,3.73817861 Z M26.7836755,50.3264139 C14.3285226,50.3264139 4.19544024,40.1933316 4.19544024,27.7381786 C4.19544024,15.2830257 14.3285226,5.14994332 26.7836755,5.14994332 C39.2388285,5.14994332 49.3719108,15.2830257 49.3719108,27.7381786 C49.3719108,40.1933316 39.2388285,50.3264139 26.7836755,50.3264139 L26.7836755,50.3264139 Z" id="Shape-Copy-10" fill="#FF5252" transform="translate(26.783676, 27.738179) rotate(-7.000000) translate(-26.783676, -27.738179) "></path>
            <rect id="Rectangle-path-Copy-4" fill="#FF5252" transform="translate(26.103963, 55.024402) rotate(-7.000000) translate(-26.103963, -55.024402) " x="25.1039632" y="54.0244021" width="2" height="2"></rect>
            <rect id="Rectangle-path-Copy-5" fill="#FF5252" transform="translate(30.074148, 54.536925) rotate(-7.000000) translate(-30.074148, -54.536925) " x="29.0741478" y="53.5369247" width="2" height="2"></rect>
            <rect id="Rectangle-path-Copy-6" fill="#FF5252" transform="translate(34.044332, 54.049447) rotate(-7.000000) translate(-34.044332, -54.049447) " x="33.0443324" y="53.0494473" width="2" height="2"></rect>
            <rect id="Rectangle-path-Copy-8" fill="#FF5252" transform="translate(27.791002, 20.687149) rotate(-14.000000) translate(-27.791002, -20.687149) " x="26.0864568" y="20.1204821" width="3.40909091" height="1.13333333"></rect>
            <rect id="Rectangle-path-Copy-9" fill="#FF5252" transform="translate(32.515350, 19.618421) rotate(-14.000000) translate(-32.515350, -19.618421) " x="31.0948955" y="19.0517543" width="2.84090909" height="1.13333333"></rect>
            <rect id="Rectangle-path-Copy-10" fill="#BA1D1D" transform="translate(30.720568, 22.168243) rotate(-14.000000) translate(-30.720568, -22.168243) " x="27.0273858" y="21.6015768" width="7.38636364" height="1.13333333"></rect>
            <rect id="Rectangle-path-Copy-11" fill="#FF5252" transform="translate(23.342307, 28.824604) rotate(-14.000000) translate(-23.342307, -28.824604) " x="21.0695794" y="28.2579377" width="4.54545455" height="1.13333333"></rect>
            <rect id="Rectangle-path-Copy-12" fill="#FF5252" transform="translate(27.791002, 27.687149) rotate(-14.000000) translate(-27.791002, -27.687149) " x="26.0864568" y="27.1204821" width="3.40909091" height="1.13333333"></rect>
            <rect id="Rectangle-path-Copy-13" fill="#FF5252" transform="translate(33.893611, 26.962060) rotate(-14.000000) translate(-33.893611, -26.962060) " x="31.0527019" y="26.3953933" width="5.68181818" height="1.13333333"></rect>
            <rect id="Rectangle-path-Copy-14" fill="#FF5252" transform="translate(21.342307, 31.824604) rotate(-14.000000) translate(-21.342307, -31.824604) " x="19.0695794" y="31.2579377" width="4.54545455" height="1.13333333"></rect>
            <rect id="Rectangle-path-Copy-15" fill="#BA1D1D" transform="translate(29.547524, 30.374427) rotate(-14.000000) translate(-29.547524, -30.374427) " x="25.0020696" y="29.8077602" width="9.09090909" height="1.13333333"></rect>
            <rect id="Rectangle-path-Copy-16" fill="#FF5252" transform="translate(36.239698, 28.549693) rotate(-14.000000) translate(-36.239698, -28.549693) " x="35.1033342" y="27.9830265" width="2.27272727" height="1.13333333"></rect>
            <rect id="Rectangle-path-Copy-17" fill="#FF5252" transform="translate(21.239698, 34.549693) rotate(-14.000000) translate(-21.239698, -34.549693) " x="20.1033342" y="33.9830265" width="2.27272727" height="1.13333333"></rect>
            <rect id="Rectangle-path-Copy-18" fill="#BA1D1D" transform="translate(26.444915, 33.099516) rotate(-14.000000) translate(-26.444915, -33.099516) " x="23.0358245" y="32.532849" width="6.81818182" height="1.13333333"></rect>
            <rect id="Rectangle-path-Copy-19" fill="#FF5252" transform="translate(34.444915, 31.099516) rotate(-14.000000) translate(-34.444915, -31.099516) " x="31.0358245" y="30.532849" width="6.81818182" height="1.13333333"></rect>
            <rect id="Rectangle-path-Copy-20" fill="#FF5252" transform="translate(21.239698, 36.549693) rotate(-14.000000) translate(-21.239698, -36.549693) " x="20.1033342" y="35.9830265" width="2.27272727" height="1.13333333"></rect>
            <rect id="Rectangle-path-Copy-21" fill="#FF5252" transform="translate(27.444915, 35.099516) rotate(-14.000000) translate(-27.444915, -35.099516) " x="24.0358245" y="34.532849" width="6.81818182" height="1.13333333"></rect>
            <rect id="Rectangle-path-Copy-22" fill="#FF5252" transform="translate(34.444915, 33.099516) rotate(-14.000000) translate(-34.444915, -33.099516) " x="31.0358245" y="32.532849" width="6.81818182" height="1.13333333"></rect>
            <rect id="Rectangle-path-Copy-23" fill="#BA1D1D" transform="translate(23.617959, 38.893332) rotate(-14.000000) translate(-23.617959, -38.893332) " x="21.0611406" y="38.3266655" width="5.11363636" height="1.13333333"></rect>
            <rect id="Rectangle-path-Copy-24" fill="#FF5252" transform="translate(30.996220, 36.236971) rotate(-14.000000) translate(-30.996220, -36.236971) " x="27.0189471" y="35.6703046" width="7.95454545" height="1.13333333"></rect>
            <rect id="Rectangle-path-Copy-25" fill="#FF5252" transform="translate(22.239698, 40.549693) rotate(-14.000000) translate(-22.239698, -40.549693) " x="21.1033342" y="39.9830265" width="2.27272727" height="1.13333333"></rect>
            <rect id="Rectangle-path-Copy-26" fill="#BA1D1D" transform="translate(29.823176, 39.443155) rotate(-14.000000) translate(-29.823176, -39.443155) " x="24.9936309" y="38.876488" width="9.65909091" height="1.13333333"></rect>
        </g>
    </g>
</svg>