<?xml version="1.0" encoding="UTF-8" standalone="no"?>
<svg width="48px" height="54px" viewBox="0 0 48 54" version="1.1" xmlns="http://www.w3.org/2000/svg" xmlns:xlink="http://www.w3.org/1999/xlink">
    <!-- Generator: Sketch 3.8.3 (29802) - http://www.bohemiancoding.com/sketch -->
    <title>Group 6</title>
    <desc>Created with Sketch.</desc>
    <defs></defs>
    <g id="Page-1" stroke="none" stroke-width="1" fill="none" fill-rule="evenodd">
        <g id="Group-6" transform="translate(-3.000000, -2.406964)">
            <rect id="Rectangle-path-Copy-40" fill="#FF5252" transform="translate(26.000000, 54.378029) rotate(-7.000000) translate(-26.000000, -54.378029) " x="25" y="53.378029" width="2" height="2"></rect>
            <rect id="Rectangle-path-Copy-41" fill="#FF5252" transform="translate(30.004308, 53.874181) rotate(-7.000000) translate(-30.004308, -53.874181) " x="29.0043081" y="52.8741811" width="2" height="2"></rect>
            <rect id="Rectangle-path-Copy-42" fill="#FF5252" transform="translate(34.000000, 53.378029) rotate(-7.000000) translate(-34.000000, -53.378029) " x="33" y="52.378029" width="2" height="2"></rect>
            <path d="M40.9567213,40.53625 C40.152,38.8483 38.5341639,37.8 36.7342951,37.8 L34.0819672,37.8 C32.2170492,37.8 30.6758033,36.3337 30.4434098,34.4439 C32.314623,33.1679 33.557377,30.95965 33.557377,28.45 L33.557377,21.85 C33.557377,19.72755 31.9101639,18 29.8852459,18 L17.8196721,18 C17.5300984,18 17.295082,18.24585 17.295082,18.55 C17.295082,19.5521 17.7231475,20.45135 18.3982951,21.05745 C18.3636721,21.13005 18.3442623,21.2131 18.3442623,21.3 C18.3442623,22.48525 18.9517377,23.56985 19.9180328,24.15505 L19.9180328,28.45 C19.9180328,30.95965 21.1607869,33.1679 23.032,34.4439 C22.7996066,36.3337 21.2583607,37.8 19.3934426,37.8 L16.7411148,37.8 C14.9412459,37.8 13.3228852,38.8483 12.5181639,40.53625 L11.055082,43.60415 C11.0188852,43.68005 11,43.76475 11,43.85 L11,44.4 L12.0491803,44.4 L12.0491803,43.9798 L13.4571803,41.02795 C14.0830164,39.7151 15.3415082,38.9 16.7411148,38.9 L19.3934426,38.9 C21.6539016,38.9 23.546623,37.22525 24.0061639,34.9972 C24.8434098,35.38275 25.7661639,35.6 26.7377049,35.6 C27.7092459,35.6 28.632,35.38275 29.4692459,34.9972 C29.9287869,37.22525 31.8215082,38.9 34.0819672,38.9 L36.7342951,38.9 C38.1339016,38.9 39.3923934,39.7151 40.0187541,41.02795 L41.4262295,43.9798 L41.4262295,44.4 L42.4754098,44.4 L42.4754098,43.85 C42.4754098,43.76475 42.4565246,43.68005 42.4203279,43.60415 L40.9567213,40.53625 L40.9567213,40.53625 Z M20.9672131,28.45 L20.9672131,23.8179 C20.9672131,23.59955 20.8439344,23.40155 20.6529836,23.3141 C20.0528525,23.03855 19.619541,22.4935 19.4605902,21.85 L20.442623,21.85 C20.7321967,21.85 20.9672131,21.60415 20.9672131,21.3 C20.9672131,20.99585 20.7321967,20.75 20.442623,20.75 C19.4668852,20.75 18.6443279,20.0482 18.4103607,19.1 L29.8852459,19.1 C31.331541,19.1 32.5081967,20.33365 32.5081967,21.85 L32.5081967,28.45 C32.5081967,31.78575 29.9193443,34.5 26.7377049,34.5 C23.5560656,34.5 20.9672131,31.78575 20.9672131,28.45 L20.9672131,28.45 Z" id="Shape-Copy-26" fill="#BA1D1D"></path>
            <path d="M27.709377,40.14775 L28.6163934,38.88 C28.736,38.71335 28.7548852,38.4906 28.6662295,38.30415 C28.5775738,38.1177 28.395541,38 28.1967213,38 L25.0491803,38 C24.8503607,38 24.6688525,38.1177 24.5796721,38.30415 C24.4904918,38.4906 24.5104262,38.71335 24.6295082,38.88 L25.5365246,40.14775 L24.055082,43.25415 C24.0188852,43.33005 24,43.41475 24,43.5 L24,44.05 L25.0491803,44.05 L25.0491803,43.6298 L26.2473443,41.11795 C26.3454426,41.22795 26.4771148,41.3 26.6229508,41.3 C26.7687869,41.3 26.900459,41.22795 26.9985574,41.11795 L28.1967213,43.6298 L28.1967213,44.05 L29.2459016,44.05 L29.2459016,43.5 C29.2459016,43.41475 29.2270164,43.33005 29.1908197,43.25415 L27.709377,40.14775 L27.709377,40.14775 Z M26.0983607,39.1 L27.147541,39.1 L26.6229508,39.83315 L26.0983607,39.1 L26.0983607,39.1 Z" id="Shape-Copy-27" fill="#FF5252"></path>
            <path d="M26.4692459,17.5 C26.603541,17.5 26.7378361,17.4461 26.8401311,17.33885 L28.9384918,15.13885 L28.1967213,14.36115 L26.9938361,15.6223 L26.9938361,12 L25.9446557,12 L25.9446557,15.6223 L24.7417705,14.36115 L24,15.13885 L26.0983607,17.33885 C26.2006557,17.4461 26.3349508,17.5 26.4692459,17.5 L26.4692459,17.5 Z" id="Shape-Copy-29" fill="#FF5252"></path>
            <path d="M36.2521967,23 L34.1538361,25.2 C33.9487213,25.41505 33.9487213,25.76265 34.1538361,25.9777 L36.2521967,28.1777 L36.9939672,27.4 L35.791082,26.13885 L39.2460328,26.13885 L39.2460328,25.03885 L35.791082,25.03885 L36.9939672,23.7777 L36.2521967,23 L36.2521967,23 Z" id="Shape-Copy-30" fill="#FF5252"></path>
            <path d="M15.9938361,28.1777 L18.0921967,25.9777 C18.2973115,25.76265 18.2973115,25.41505 18.0921967,25.2 L15.9938361,23 L15.2520656,23.7777 L16.4549508,25.03885 L13,25.03885 L13,26.13885 L16.4549508,26.13885 L15.2520656,27.4 L15.9938361,28.1777 L15.9938361,28.1777 Z" id="Shape-Copy-31" fill="#D0011B"></path>
            <rect id="Rectangle-path-Copy-39" fill="#FF5252" x="41" y="25" width="1.04918033" height="1.1"></rect>
            <path d="M27,3.13205716 C13.7661176,3.13205716 3,13.8981748 3,27.1320572 C3,40.3659395 13.7661176,51.1320572 27,51.1320572 C40.2338824,51.1320572 51,40.3659395 51,27.1320572 C51,13.8981748 40.2338824,3.13205716 27,3.13205716 L27,3.13205716 Z M27,49.7202925 C14.5448471,49.7202925 4.41176471,39.5872101 4.41176471,27.1320572 C4.41176471,14.6769042 14.5448471,4.54382187 27,4.54382187 C39.4551529,4.54382187 49.5882353,14.6769042 49.5882353,27.1320572 C49.5882353,39.5872101 39.4551529,49.7202925 27,49.7202925 L27,49.7202925 Z" id="Shape-Copy-28" fill="#FF5252" transform="translate(27.000000, 27.132057) rotate(-7.000000) translate(-27.000000, -27.132057) "></path>
            <rect id="Rectangle-path-Copy-43" fill="#FF5252" x="11" y="25" width="1.04918033" height="1.1"></rect>
            <path d="M24.0983607,24 C22.9411148,24 22,24.9867 22,26.2 C22,27.4133 22.9411148,28.4 24.0983607,28.4 C25.2556066,28.4 26.1967213,27.4133 26.1967213,26.2 C26.1967213,24.9867 25.2556066,24 24.0983607,24 L24.0983607,24 Z M24.0983607,27.3 C23.5197377,27.3 23.0491803,26.80665 23.0491803,26.2 C23.0491803,25.59335 23.5197377,25.1 24.0983607,25.1 C24.6769836,25.1 25.147541,25.59335 25.147541,26.2 C25.147541,26.80665 24.6769836,27.3 24.0983607,27.3 L24.0983607,27.3 Z" id="Shape-Copy-32" fill="#FF5252"></path>
            <path d="M29.0983607,28.4 C30.2556066,28.4 31.1967213,27.4133 31.1967213,26.2 C31.1967213,24.9867 30.2556066,24 29.0983607,24 C27.9411148,24 27,24.9867 27,26.2 C27,27.4133 27.9411148,28.4 29.0983607,28.4 L29.0983607,28.4 Z M29.0983607,25.1 C29.6769836,25.1 30.147541,25.59335 30.147541,26.2 C30.147541,26.80665 29.6769836,27.3 29.0983607,27.3 C28.5197377,27.3 28.0491803,26.80665 28.0491803,26.2 C28.0491803,25.59335 28.5197377,25.1 29.0983607,25.1 L29.0983607,25.1 Z" id="Shape-Copy-33" fill="#FF5252"></path>
            <path d="M40.8688525,12 L34.5737705,12 C33.7060984,12 33,12.7403 33,13.65 L33,16.95 C33,17.8597 33.7060984,18.6 34.5737705,18.6 L34.5737705,19.7 C34.5737705,19.898 34.675541,20.0806 34.8397377,20.1785 C34.92,20.22635 35.0091803,20.25 35.0983607,20.25 C35.1917377,20.25 35.2851148,20.2236 35.3685246,20.17135 L37.866623,18.6 L40.8688525,18.6 C41.7365246,18.6 42.442623,17.8597 42.442623,16.95 L42.442623,13.65 C42.442623,12.7403 41.7365246,12 40.8688525,12 L40.8688525,12 Z M41.3934426,16.95 C41.3934426,17.2536 41.1579016,17.5 40.8688525,17.5 L37.7213115,17.5 C37.6263607,17.5 37.5329836,17.52695 37.4511475,17.57865 L35.6229508,18.72815 L35.6229508,18.05 C35.6229508,17.74585 35.3879344,17.5 35.0983607,17.5 L34.5737705,17.5 C34.2847213,17.5 34.0491803,17.2536 34.0491803,16.95 L34.0491803,13.65 C34.0491803,13.3464 34.2847213,13.1 34.5737705,13.1 L40.8688525,13.1 C41.1579016,13.1 41.3934426,13.3464 41.3934426,13.65 L41.3934426,16.95 L41.3934426,16.95 Z" id="Shape-Copy-34" fill="#BA1D1D"></path>
            <rect id="Rectangle-path-Copy-44" fill="#FF5252" x="35" y="14" width="1.04918033" height="1.1"></rect>
            <rect id="Rectangle-path-Copy-45" fill="#FF5252" x="37" y="14" width="1.04918033" height="1.1"></rect>
            <rect id="Rectangle-path-Copy-46" fill="#FF5252" x="39" y="14" width="1.04918033" height="1.1"></rect>
            <path d="M17.8688525,37.2507585 C18.7365246,37.2507585 19.442623,36.5104585 19.442623,35.6007585 L19.442623,33.4007585 C19.442623,32.5312085 18.7979016,31.8167585 17.9832131,31.7551585 L18.3829508,29.6585585 C18.4264918,29.4297585 18.3278689,29.1971085 18.136918,29.0777585 C17.9459672,28.9578585 17.7041311,28.9782085 17.5331148,29.1278085 L14.5314098,31.7507585 L11.5737705,31.7507585 C10.7060984,31.7507585 10,32.4910585 10,33.4007585 L10,35.6007585 C10,36.5104585 10.7060984,37.2507585 11.5737705,37.2507585 L17.8688525,37.2507585 L17.8688525,37.2507585 Z M11.0491803,35.6007585 L11.0491803,33.4007585 C11.0491803,33.0971585 11.2847213,32.8507585 11.5737705,32.8507585 L14.7213115,32.8507585 C14.8440656,32.8507585 14.962623,32.8056585 15.0570492,32.7237085 L17.063082,30.9708585 L16.8301639,32.1929585 C16.7992131,32.3546585 16.839082,32.5224085 16.9387541,32.6494585 C17.0384262,32.7765085 17.1868852,32.8507585 17.3442623,32.8507585 L17.8688525,32.8507585 C18.1579016,32.8507585 18.3934426,33.0971585 18.3934426,33.4007585 L18.3934426,35.6007585 C18.3934426,35.9043585 18.1579016,36.1507585 17.8688525,36.1507585 L11.5737705,36.1507585 C11.2847213,36.1507585 11.0491803,35.9043585 11.0491803,35.6007585 L11.0491803,35.6007585 Z" id="Shape-Copy-35" fill="#FF5252"></path>
            <rect id="Rectangle-path-Copy-47" fill="#FF5252" x="17" y="34" width="1.04918033" height="1.1"></rect>
            <rect id="Rectangle-path-Copy-48" fill="#FF5252" x="15" y="33" width="1.04918033" height="1.1"></rect>
            <rect id="Rectangle-path-Copy-49" fill="#FF5252" x="13" y="33" width="1.04918033" height="1.1"></rect>
            <path d="M28,31.65 L28,32.75 C29.4462951,32.75 30.6229508,31.51635 30.6229508,30 L29.5737705,30 C29.5737705,30.9097 28.8676721,31.65 28,31.65 L28,31.65 Z" id="Shape-Copy-36" fill="#FF5252"></path>
            <path d="M12.5737705,17.5 L13.4776393,17.5 L15.9757377,19.07135 C16.0591475,19.1236 16.1525246,19.15 16.2459016,19.15 C16.335082,19.15 16.4242623,19.12635 16.5045246,19.0785 C16.6687213,18.9806 16.7704918,18.798 16.7704918,18.6 L16.7704918,17.5 C17.6381639,17.5 18.3442623,16.7597 18.3442623,15.85 L18.3442623,13.65 C18.3442623,12.7403 17.6381639,12 16.7704918,12 L12.5737705,12 C11.7060984,12 11,12.7403 11,13.65 L11,15.85 C11,16.7597 11.7060984,17.5 12.5737705,17.5 L12.5737705,17.5 Z M12.0491803,13.65 C12.0491803,13.3464 12.2847213,13.1 12.5737705,13.1 L16.7704918,13.1 C17.059541,13.1 17.295082,13.3464 17.295082,13.65 L17.295082,15.85 C17.295082,16.1536 17.059541,16.4 16.7704918,16.4 L16.2459016,16.4 C15.9563279,16.4 15.7213115,16.64585 15.7213115,16.95 L15.7213115,17.62815 L13.8931148,16.4781 C13.8112787,16.42695 13.7179016,16.4 13.6229508,16.4 L12.5737705,16.4 C12.2847213,16.4 12.0491803,16.1536 12.0491803,15.85 L12.0491803,13.65 L12.0491803,13.65 Z" id="Shape-Copy-37" fill="#FF5252"></path>
            <rect id="Rectangle-path-Copy-50" fill="#FF5252" x="16" y="14" width="1.04918033" height="1.1"></rect>
            <rect id="Rectangle-path-Copy-51" fill="#FF5252" x="14" y="14" width="1.04918033" height="1.1"></rect>
            <path d="M33,33.3000459 L33,35.5000459 C33,36.4097459 33.7060984,37.1500459 34.5737705,37.1500459 L38.7704918,37.1500459 C39.6381639,37.1500459 40.3442623,36.4097459 40.3442623,35.5000459 L40.3442623,33.3000459 C40.3442623,32.3903459 39.6381639,31.6500459 38.7704918,31.6500459 L37.866623,31.6500459 L35.3685246,30.0786959 C35.2064262,29.9763959 35.004459,29.9736459 34.8402623,30.0715459 C34.675541,30.1694459 34.5737705,30.3520459 34.5737705,30.5500459 L34.5737705,31.6500459 C33.7060984,31.6500459 33,32.3903459 33,33.3000459 L33,33.3000459 Z M34.0491803,33.3000459 C34.0491803,32.9964459 34.2847213,32.7500459 34.5737705,32.7500459 L35.0983607,32.7500459 C35.3879344,32.7500459 35.6229508,32.5041959 35.6229508,32.2000459 L35.6229508,31.5218959 L37.4511475,32.6719459 C37.5329836,32.7230959 37.6263607,32.7500459 37.7213115,32.7500459 L38.7704918,32.7500459 C39.059541,32.7500459 39.295082,32.9964459 39.295082,33.3000459 L39.295082,35.5000459 C39.295082,35.8036459 39.059541,36.0500459 38.7704918,36.0500459 L34.5737705,36.0500459 C34.2847213,36.0500459 34.0491803,35.8036459 34.0491803,35.5000459 L34.0491803,33.3000459 L34.0491803,33.3000459 Z" id="Shape-Copy-38" fill="#FF5252"></path>
            <rect id="Rectangle-path-Copy-52" fill="#FF5252" x="35" y="34" width="1.04918033" height="1.1"></rect>
            <rect id="Rectangle-path-Copy-53" fill="#FF5252" x="38" y="34" width="1.04918033" height="1.1"></rect>
        </g>
    </g>
</svg>