<?xml version="1.0" encoding="UTF-8" standalone="no"?>
<svg width="49px" height="53px" viewBox="0 0 49 53" version="1.1" xmlns="http://www.w3.org/2000/svg" xmlns:xlink="http://www.w3.org/1999/xlink">
    <!-- Generator: Sketch 3.8.3 (29802) - http://www.bohemiancoding.com/sketch -->
    <title>Group 7</title>
    <desc>Created with Sketch.</desc>
    <defs></defs>
    <g id="Page-1" stroke="none" stroke-width="1" fill="none" fill-rule="evenodd">
        <g id="Group-7" transform="translate(-2.000000, -3.000000)">
            <path d="M35.7449989,13.8565461 C35.642158,13.7534127 35.5001125,13.6899461 35.3427262,13.6899461 L18.8654534,13.6899461 C17.2989762,13.6899461 16.0245443,14.9609794 16.0245443,16.5232794 L16.0245443,40.8899461 C16.0245443,42.4522461 17.2989762,43.7232794 18.8654534,43.7232794 L25.1154534,43.7232794 L25.1154533,50.0309953 L26.2518173,50.0309953 L26.2518171,43.7232794 L34.7745443,43.7232794 C35.0881807,43.7232794 35.3427262,43.4699794 35.3427262,43.1566127 L35.3427262,40.3232794 C35.3427262,39.2692794 36.0682943,38.3801794 37.0472716,38.1285794 L37.0472716,43.1566127 L37.0472716,47.6899461 L38.1836352,47.6899461 L38.1836352,43.7232794 C39.7501125,43.7232794 41.0245443,42.4522461 41.0245443,40.8899461 L41.0245443,19.3566127 C41.0245443,19.1996461 40.960908,19.0579794 40.8574989,18.9554127 L35.7449989,13.8565461 Z M35.910908,15.6245461 L39.0847716,18.7899461 L35.910908,18.7899461 L35.910908,15.6245461 L35.910908,15.6245461 Z M39.8881807,40.8899461 C39.8881807,41.8272127 39.123408,42.5899461 38.1836352,42.5899461 L38.1836352,37.4899461 C38.1836352,37.1765794 37.9290898,36.9232794 37.6154534,36.9232794 C35.7353398,36.9232794 34.2063625,38.4481794 34.2063625,40.3232794 L34.2063625,42.5899461 L18.8654534,42.5899461 C17.9256807,42.5899461 17.160908,41.8272127 17.160908,40.8899461 L17.160908,16.5232794 C17.160908,15.5860127 17.9256807,14.8232794 18.8654534,14.8232794 L34.7745443,14.8232794 L34.7745443,19.3566127 C34.7745443,19.6699794 35.0290898,19.9232794 35.3427262,19.9232794 L39.8881807,19.9232794 L39.8881807,40.8899461 L39.8881807,40.8899461 Z" id="Shape-Copy-11" fill="#BA1D1D" transform="translate(28.524544, 31.860471) rotate(-14.000000) translate(-28.524544, -31.860471) "></path>
            <path d="M19.8026023,26.2373169 L23.2116932,26.2373169 L25.4844204,26.2373169 C25.7980568,26.2373169 26.0526023,25.9840169 26.0526023,25.6706502 L26.0526023,17.7373169 C26.0526023,17.4239502 25.7980568,17.1706502 25.4844204,17.1706502 L17.529875,17.1706502 C17.2162386,17.1706502 16.9616932,17.4239502 16.9616932,17.7373169 L16.9616932,25.6706502 C16.9616932,25.9840169 17.2162386,26.2373169 17.529875,26.2373169 L19.8026023,26.2373169 L19.8026023,26.2373169 Z M20.9389659,21.1373169 C20.9389659,20.8245169 21.1940795,20.5706502 21.5071477,20.5706502 C21.8202159,20.5706502 22.0753295,20.8245169 22.0753295,21.1373169 C22.0753295,21.4501169 21.8202159,21.7039835 21.5071477,21.7039835 C21.1940795,21.7039835 20.9389659,21.4501169 20.9389659,21.1373169 L20.9389659,21.1373169 Z M20.3707841,25.1039835 L20.3707841,23.9706502 C20.3707841,23.3456169 20.8804432,22.8373169 21.5071477,22.8373169 C22.1338523,22.8373169 22.6435113,23.3456169 22.6435113,23.9706502 L22.6435113,25.1039835 L20.3707841,25.1039835 L20.3707841,25.1039835 Z M18.0980568,18.3039835 L24.9162386,18.3039835 L24.9162386,25.1039835 L23.779875,25.1039835 L23.779875,23.9706502 C23.779875,23.2277502 23.4151023,22.5738169 22.8599886,22.1601502 C23.0776023,21.8745502 23.2116932,21.5226502 23.2116932,21.1373169 C23.2116932,20.2000502 22.4469204,19.4373169 21.5071477,19.4373169 C20.567375,19.4373169 19.8026023,20.2000502 19.8026023,21.1373169 C19.8026023,21.5226502 19.9366932,21.8745502 20.1543068,22.1601502 C19.5991932,22.5738169 19.2344204,23.2277502 19.2344204,23.9706502 L19.2344204,25.1039835 L18.0980568,25.1039835 L18.0980568,18.3039835 L18.0980568,18.3039835 Z" id="Shape-Copy-12" fill="#FF5252" transform="translate(21.507148, 21.703984) rotate(-14.000000) translate(-21.507148, -21.703984) "></path>
            <rect id="Rectangle-path-Copy-7" fill="#FF5252" transform="translate(27.515350, 18.099138) rotate(-14.000000) translate(-27.515350, -18.099138) " x="26.0948955" y="17.5324712" width="2.84090909" height="1.13333333"></rect>
            <path d="M26.7836755,3.21889557 C13.5497932,3.21889557 2.78367553,13.9850132 2.78367553,27.2188956 C2.78367553,40.4527779 13.5497932,51.2188956 26.7836755,51.2188956 C40.0175579,51.2188956 50.7836755,40.4527779 50.7836755,27.2188956 C50.7836755,13.9850132 40.0175579,3.21889557 26.7836755,3.21889557 L26.7836755,3.21889557 Z M26.7836755,49.8071309 C14.3285226,49.8071309 4.19544024,39.6740485 4.19544024,27.2188956 C4.19544024,14.7637426 14.3285226,4.63066028 26.7836755,4.63066028 C39.2388285,4.63066028 49.3719108,14.7637426 49.3719108,27.2188956 C49.3719108,39.6740485 39.2388285,49.8071309 26.7836755,49.8071309 L26.7836755,49.8071309 Z" id="Shape-Copy-10" fill="#FF5252" transform="translate(26.783676, 27.218896) rotate(-7.000000) translate(-26.783676, -27.218896) "></path>
            <rect id="Rectangle-path-Copy-4" fill="#FF5252" transform="translate(26.103963, 54.505119) rotate(-7.000000) translate(-26.103963, -54.505119) " x="25.1039632" y="53.505119" width="2" height="2"></rect>
            <rect id="Rectangle-path-Copy-5" fill="#FF5252" transform="translate(30.074148, 54.017642) rotate(-7.000000) translate(-30.074148, -54.017642) " x="29.0741478" y="53.0176417" width="2" height="2"></rect>
            <rect id="Rectangle-path-Copy-6" fill="#FF5252" transform="translate(34.044332, 53.530164) rotate(-7.000000) translate(-34.044332, -53.530164) " x="33.0443324" y="52.5301643" width="2" height="2"></rect>
            <rect id="Rectangle-path-Copy-8" fill="#FF5252" transform="translate(27.791002, 20.167866) rotate(-14.000000) translate(-27.791002, -20.167866) " x="26.0864568" y="19.601199" width="3.40909091" height="1.13333333"></rect>
            <rect id="Rectangle-path-Copy-9" fill="#FF5252" transform="translate(32.515350, 19.099138) rotate(-14.000000) translate(-32.515350, -19.099138) " x="31.0948955" y="18.5324712" width="2.84090909" height="1.13333333"></rect>
            <rect id="Rectangle-path-Copy-10" fill="#BA1D1D" transform="translate(30.720568, 21.648960) rotate(-14.000000) translate(-30.720568, -21.648960) " x="27.0273858" y="21.0822937" width="7.38636364" height="1.13333333"></rect>
            <rect id="Rectangle-path-Copy-11" fill="#FF5252" transform="translate(23.342307, 28.305321) rotate(-14.000000) translate(-23.342307, -28.305321) " x="21.0695794" y="27.7386547" width="4.54545455" height="1.13333333"></rect>
            <rect id="Rectangle-path-Copy-12" fill="#FF5252" transform="translate(27.791002, 27.167866) rotate(-14.000000) translate(-27.791002, -27.167866) " x="26.0864568" y="26.601199" width="3.40909091" height="1.13333333"></rect>
            <rect id="Rectangle-path-Copy-13" fill="#FF5252" transform="translate(33.893611, 26.442777) rotate(-14.000000) translate(-33.893611, -26.442777) " x="31.0527019" y="25.8761103" width="5.68181818" height="1.13333333"></rect>
            <rect id="Rectangle-path-Copy-14" fill="#FF5252" transform="translate(21.342307, 31.305321) rotate(-14.000000) translate(-21.342307, -31.305321) " x="19.0695794" y="30.7386547" width="4.54545455" height="1.13333333"></rect>
            <rect id="Rectangle-path-Copy-15" fill="#BA1D1D" transform="translate(29.547524, 29.855144) rotate(-14.000000) translate(-29.547524, -29.855144) " x="25.0020696" y="29.2884772" width="9.09090909" height="1.13333333"></rect>
            <rect id="Rectangle-path-Copy-16" fill="#FF5252" transform="translate(36.239698, 28.030410) rotate(-14.000000) translate(-36.239698, -28.030410) " x="35.1033342" y="27.4637434" width="2.27272727" height="1.13333333"></rect>
            <rect id="Rectangle-path-Copy-17" fill="#FF5252" transform="translate(21.239698, 34.030410) rotate(-14.000000) translate(-21.239698, -34.030410) " x="20.1033342" y="33.4637434" width="2.27272727" height="1.13333333"></rect>
            <rect id="Rectangle-path-Copy-18" fill="#BA1D1D" transform="translate(26.444915, 32.580233) rotate(-14.000000) translate(-26.444915, -32.580233) " x="23.0358245" y="32.0135659" width="6.81818182" height="1.13333333"></rect>
            <rect id="Rectangle-path-Copy-19" fill="#FF5252" transform="translate(34.444915, 30.580233) rotate(-14.000000) translate(-34.444915, -30.580233) " x="31.0358245" y="30.0135659" width="6.81818182" height="1.13333333"></rect>
            <rect id="Rectangle-path-Copy-20" fill="#FF5252" transform="translate(21.239698, 36.030410) rotate(-14.000000) translate(-21.239698, -36.030410) " x="20.1033342" y="35.4637434" width="2.27272727" height="1.13333333"></rect>
            <rect id="Rectangle-path-Copy-21" fill="#FF5252" transform="translate(27.444915, 34.580233) rotate(-14.000000) translate(-27.444915, -34.580233) " x="24.0358245" y="34.0135659" width="6.81818182" height="1.13333333"></rect>
            <rect id="Rectangle-path-Copy-22" fill="#FF5252" transform="translate(34.444915, 32.580233) rotate(-14.000000) translate(-34.444915, -32.580233) " x="31.0358245" y="32.0135659" width="6.81818182" height="1.13333333"></rect>
            <rect id="Rectangle-path-Copy-23" fill="#BA1D1D" transform="translate(23.617959, 38.374049) rotate(-14.000000) translate(-23.617959, -38.374049) " x="21.0611406" y="37.8073825" width="5.11363636" height="1.13333333"></rect>
            <rect id="Rectangle-path-Copy-24" fill="#FF5252" transform="translate(30.996220, 35.717688) rotate(-14.000000) translate(-30.996220, -35.717688) " x="27.0189471" y="35.1510215" width="7.95454545" height="1.13333333"></rect>
            <rect id="Rectangle-path-Copy-25" fill="#FF5252" transform="translate(22.239698, 40.030410) rotate(-14.000000) translate(-22.239698, -40.030410) " x="21.1033342" y="39.4637434" width="2.27272727" height="1.13333333"></rect>
            <rect id="Rectangle-path-Copy-26" fill="#BA1D1D" transform="translate(29.823176, 38.923872) rotate(-14.000000) translate(-29.823176, -38.923872) " x="24.9936309" y="38.357205" width="9.65909091" height="1.13333333"></rect>
        </g>
    </g>
</svg>