<?xml version="1.0" encoding="UTF-8" standalone="no"?>
<svg width="48px" height="53px" viewBox="0 0 48 53" version="1.1" xmlns="http://www.w3.org/2000/svg" xmlns:xlink="http://www.w3.org/1999/xlink">
    <!-- Generator: Sketch 3.8.3 (29802) - http://www.bohemiancoding.com/sketch -->
    <title>Group 10</title>
    <desc>Created with Sketch.</desc>
    <defs></defs>
    <g id="Page-1" stroke="none" stroke-width="1" fill="none" fill-rule="evenodd">
        <g id="Group-10" transform="translate(-3.000000, -3.000000)">
            <ellipse id="Oval" stroke="#FF5252" stroke-width="0.799999952" cx="17.1358653" cy="34.2021409" rx="1.97248101" ry="1.98821053"></ellipse>
            <ellipse id="Oval" stroke="#FF5252" stroke-width="0.799999952" cx="27.1144029" cy="34.2021409" rx="1.97248101" ry="1.98821053"></ellipse>
            <ellipse id="Oval-Copy" stroke="#C02326" stroke-width="0.799999952" fill="#C02326" cx="22.1251341" cy="34.2021409" rx="1.97248101" ry="1.98821053"></ellipse>
            <ellipse id="Oval" stroke="#C02326" stroke-width="0.799999952" cx="32.1040895" cy="34.2025619" rx="1.97289873" ry="1.98863158"></ellipse>
            <ellipse id="Oval-Copy-2" stroke="#FF5252" stroke-width="0.799999952" fill="#FF5252" cx="37.0941938" cy="34.2025619" rx="1.97289873" ry="1.98863158"></ellipse>
            <ellipse id="Oval" stroke="#FF5252" stroke-width="0.799999952" cx="17.1358653" cy="39.2966682" rx="1.97248101" ry="1.98821053"></ellipse>
            <ellipse id="Oval" stroke="#FF5252" stroke-width="0.799999952" cx="27.1144029" cy="39.2966682" rx="1.97248101" ry="1.98821053"></ellipse>
            <ellipse id="Oval-Copy" stroke="#C02326" stroke-width="0.799999952" fill="#C02326" cx="22.1251341" cy="39.2966682" rx="1.97248101" ry="1.98821053"></ellipse>
            <ellipse id="Oval" stroke="#FF5252" stroke-width="0.799999952" cx="32.1040895" cy="39.2970893" rx="1.97289873" ry="1.98863158"></ellipse>
            <ellipse id="Oval-Copy-2" stroke="#C02326" stroke-width="0.799999952" cx="37.0941938" cy="39.2970893" rx="1.97289873" ry="1.98863158"></ellipse>
            <ellipse id="Oval" stroke="#C02326" stroke-width="0.799999952" cx="17.1358653" cy="44.3911956" rx="1.97248101" ry="1.98821053"></ellipse>
            <ellipse id="Oval" stroke="#C02326" stroke-width="0.799999952" fill="#C02326" cx="27.1144029" cy="44.3911956" rx="1.97248101" ry="1.98821053"></ellipse>
            <ellipse id="Oval-Copy" stroke="#C02326" stroke-width="0.799999952" cx="22.1251341" cy="44.3911956" rx="1.97248101" ry="1.98821053"></ellipse>
            <ellipse id="Oval" stroke="#FF5252" stroke-width="0.799999952" fill="#FF5252" cx="27.1144029" cy="29.1076135" rx="1.97248101" ry="1.98821053"></ellipse>
            <ellipse id="Oval-Copy" stroke="#C02326" stroke-width="0.799999952" cx="22.1251341" cy="29.1076135" rx="1.97248101" ry="1.98821053"></ellipse>
            <ellipse id="Oval" stroke="#FF5252" stroke-width="0.799999952" cx="32.1040895" cy="29.1080346" rx="1.97289873" ry="1.98863158"></ellipse>
            <ellipse id="Oval-Copy-2" stroke="#C02326" stroke-width="0.799999952" cx="37.0941938" cy="29.1080346" rx="1.97289873" ry="1.98863158"></ellipse>
            <path d="M17.0714286,24.4513684 L17.0714286,20" id="Shape" stroke="#C02326" stroke-width="2" stroke-linecap="round"></path>
            <path d="M35.9285714,24.4513684 L35.9285714,20" id="Shape" stroke="#C02326" stroke-width="2" stroke-linecap="round"></path>
            <path d="M31.2295082,8.27493204 L23.0459016,8.27493204 C21.9179279,8.27493204 21,9.23732204 21,10.419932 L21,14.709932 C21,15.892542 21.9179279,16.854932 23.0459016,16.854932 L23.0459016,18.284932 C23.0459016,18.542332 23.1782033,18.779712 23.391659,18.906982 C23.496,18.969187 23.6119344,18.999932 23.7278689,18.999932 C23.849259,18.999932 23.9706492,18.965612 24.079082,18.897687 L27.3266098,16.854932 L31.2295082,16.854932 C32.357482,16.854932 33.2754098,15.892542 33.2754098,14.709932 L33.2754098,10.419932 C33.2754098,9.23732204 32.357482,8.27493204 31.2295082,8.27493204 L31.2295082,8.27493204 Z M31.9114754,14.709932 C31.9114754,15.104612 31.6052721,15.424932 31.2295082,15.424932 L27.1377049,15.424932 C27.0142689,15.424932 26.8928787,15.459967 26.7864918,15.527177 L24.4098361,17.021527 L24.4098361,16.139932 C24.4098361,15.744537 24.1043148,15.424932 23.7278689,15.424932 L23.0459016,15.424932 C22.6701377,15.424932 22.3639344,15.104612 22.3639344,14.709932 L22.3639344,10.419932 C22.3639344,10.025252 22.6701377,9.70493204 23.0459016,9.70493204 L31.2295082,9.70493204 C31.6052721,9.70493204 31.9114754,10.025252 31.9114754,10.419932 L31.9114754,14.709932 L31.9114754,14.709932 Z" id="Shape-Copy-21" fill="#C02326"></path>
            <rect id="Rectangle-path-Copy-30" fill="#FF5252" transform="translate(26.450063, 12.965917) rotate(-44.000000) translate(-26.450063, -12.965917) " x="25.7680958" y="11.5294175" width="1.36393443" height="2.87299989" rx="0.681967213"></rect>
            <rect id="Rectangle-path-Copy-54" fill="#FF5252" transform="translate(28.004426, 12.484505) rotate(-315.000000) translate(-28.004426, -12.484505) " x="27.2806802" y="10.289127" width="1.44749136" height="4.39075638" rx="0.723745681"></rect>
            <path d="M23.3172901,50.09341 C14.4745501,47.951078 10.8113861,43.9780326 10.1027477,42.8255611 L10.1027477,23.670105 C10.1027477,22.5339547 11.0242414,21.6128421 12.1612794,21.6128421 L40.8061148,21.6128421 C41.9431528,21.6128421 42.8646465,22.5343723 42.8646465,23.670105 L42.8646458,44.2123858 C42.8646458,44.2123858 35.2782582,51.7520538 23.3172901,50.09341 Z" id="Shape" stroke="#C02326"></path>
            <rect id="Rectangle-path-Copy-40" fill="#FF5252" transform="translate(26.000000, 54.378029) rotate(-7.000000) translate(-26.000000, -54.378029) " x="25" y="53.378029" width="2" height="2"></rect>
            <rect id="Rectangle-path-Copy-41" fill="#FF5252" transform="translate(30.004308, 53.874181) rotate(-7.000000) translate(-30.004308, -53.874181) " x="29.0043081" y="52.8741811" width="2" height="2"></rect>
            <rect id="Rectangle-path-Copy-42" fill="#FF5252" transform="translate(34.000000, 53.378029) rotate(-7.000000) translate(-34.000000, -53.378029) " x="33" y="52.378029" width="2" height="2"></rect>
            <path d="M27,49.5882353 C14.5448471,49.5882353 4.41176471,39.4551529 4.41176471,27 C4.41176471,14.5448471 14.5448471,4.41176471 27,4.41176471 C39.4551529,4.41176471 49.5882353,14.5448471 49.5882353,27 C49.5882353,39.4551529 39.4551529,49.5882353 27,49.5882353 L27,49.5882353 Z M27,3 C13.7661176,3 3,13.7661176 3,27 C3,40.2338824 13.7661176,51 27,51 C40.2338824,51 51,40.2338824 51,27 C51,13.7661176 40.2338824,3 27,3 L27,3 Z" id="Shape-Copy-28" fill="#FF5252" transform="translate(27.000000, 27.000000) rotate(-7.000000) translate(-27.000000, -27.000000) "></path>
        </g>
    </g>
</svg>